<?xml version="1.0" encoding="UTF-8" standalone="no"?>
<!DOCTYPE svg PUBLIC "-//W3C//DTD SVG 1.1//EN"
 "http://www.w3.org/Graphics/SVG/1.1/DTD/svg11.dtd">
<!-- Generated by graphviz version 2.43.0 (0)
 -->
<!-- Title: %3 Pages: 1 -->
<svg width="812pt" height="508pt"
 viewBox="0.00 0.00 812.12 507.96" xmlns="http://www.w3.org/2000/svg" xmlns:xlink="http://www.w3.org/1999/xlink">
<g id="graph0" class="graph" transform="scale(1 1) rotate(0) translate(4 503.96)">
<title>%3</title>
<polygon fill="white" stroke="transparent" points="-4,4 -4,-503.96 808.12,-503.96 808.12,4 -4,4"/>
<!-- API Gateway -->
<g id="node1" class="node">
<title>API Gateway</title>
<ellipse fill="none" stroke="black" cx="342.69" cy="-400.09" rx="115.02" ry="26.74"/>
<text text-anchor="middle" x="342.69" y="-403.89" font-family="Times,serif" font-size="14.00">finman&#45;api&#45;gateway</text>
<text text-anchor="middle" x="342.69" y="-388.89" font-family="Times,serif" font-size="14.00">(REST API Gateway)</text>
</g>
<!-- Auth Service -->
<g id="node2" class="node">
<title>Auth Service</title>
<ellipse fill="none" stroke="black" cx="128.69" cy="-309.35" rx="128.89" ry="26.74"/>
<text text-anchor="middle" x="128.69" y="-313.15" font-family="Times,serif" font-size="14.00">finman&#45;auth&#45;service</text>
<text text-anchor="middle" x="128.69" y="-298.15" font-family="Times,serif" font-size="14.00">(Authentication &amp; JWT)</text>
</g>
<!-- API Gateway&#45;&gt;Auth Service -->
<g id="edge2" class="edge">
<title>API Gateway&#45;&gt;Auth Service</title>
<path fill="none" stroke="black" d="M287.86,-376.35C259.37,-364.54 224.34,-350.01 194.4,-337.6"/>
<polygon fill="black" stroke="black" points="195.45,-334.24 184.87,-333.65 192.77,-340.71 195.45,-334.24"/>
</g>
<!-- User Service -->
<g id="node3" class="node">
<title>User Service</title>
<ellipse fill="none" stroke="black" cx="393.69" cy="-99.87" rx="113.27" ry="26.74"/>
<text text-anchor="middle" x="393.69" y="-103.67" font-family="Times,serif" font-size="14.00">finman&#45;user&#45;service</text>
<text text-anchor="middle" x="393.69" y="-88.67" font-family="Times,serif" font-size="14.00">(User Management)</text>
</g>
<!-- API Gateway&#45;&gt;User Service -->
<g id="edge3" class="edge">
<title>API Gateway&#45;&gt;User Service</title>
<path fill="none" stroke="black" d="M328.95,-373.28C308.25,-330.65 274.51,-243.69 304.69,-177.74 313.16,-159.24 328.52,-143.5 344.12,-131.17"/>
<polygon fill="black" stroke="black" points="346.38,-133.85 352.26,-125.04 342.17,-128.26 346.38,-133.85"/>
</g>
<!-- Transaction Service -->
<g id="node4" class="node">
<title>Transaction Service</title>
<ellipse fill="none" stroke="black" cx="488.69" cy="-309.35" rx="147.57" ry="26.74"/>
<text text-anchor="middle" x="488.69" y="-313.15" font-family="Times,serif" font-size="14.00">finman&#45;transaction&#45;service</text>
<text text-anchor="middle" x="488.69" y="-298.15" font-family="Times,serif" font-size="14.00">(Transaction Management)</text>
</g>
<!-- API Gateway&#45;&gt;Transaction Service -->
<g id="edge4" class="edge">
<title>API Gateway&#45;&gt;Transaction Service</title>
<path fill="none" stroke="black" d="M382.59,-374.84C400.08,-364.21 420.79,-351.62 439.25,-340.4"/>
<polygon fill="black" stroke="black" points="441.1,-343.37 447.83,-335.19 437.47,-337.39 441.1,-343.37"/>
</g>
<!-- Role Service -->
<g id="node5" class="node">
<title>Role Service</title>
<ellipse fill="none" stroke="black" cx="691.69" cy="-204.61" rx="112.36" ry="26.74"/>
<text text-anchor="middle" x="691.69" y="-208.41" font-family="Times,serif" font-size="14.00">finman&#45;role&#45;service</text>
<text text-anchor="middle" x="691.69" y="-193.41" font-family="Times,serif" font-size="14.00">(Role &amp; Permission)</text>
</g>
<!-- API Gateway&#45;&gt;Role Service -->
<g id="edge5" class="edge">
<title>API Gateway&#45;&gt;Role Service</title>
<path fill="none" stroke="black" d="M446.87,-388.44C522.41,-378.74 616.27,-361.94 645.69,-336.22 672.97,-312.37 684.08,-271.33 688.59,-241.61"/>
<polygon fill="black" stroke="black" points="692.07,-241.99 689.93,-231.61 685.14,-241.06 692.07,-241.99"/>
</g>
<!-- Auth Service&#45;&gt;User Service -->
<g id="edge6" class="edge">
<title>Auth Service&#45;&gt;User Service</title>
<path fill="none" stroke="black" d="M149.82,-282.52C161.89,-267.66 177.25,-248.61 190.69,-231.48 223.25,-189.98 225.85,-170.83 271.69,-144.74 285.09,-137.11 300.05,-130.43 314.79,-124.72"/>
<polygon fill="black" stroke="black" points="316.28,-127.9 324.41,-121.12 313.82,-121.35 316.28,-127.9"/>
<text text-anchor="middle" x="250.69" y="-200.91" font-family="Times,serif" font-size="14.00">gRPC</text>
</g>
<!-- Auth DB -->
<g id="node6" class="node">
<title>Auth DB</title>
<path fill="none" stroke="black" d="M181.69,-219.34C181.69,-221.14 154.35,-222.61 120.69,-222.61 87.03,-222.61 59.69,-221.14 59.69,-219.34 59.69,-219.34 59.69,-189.88 59.69,-189.88 59.69,-188.08 87.03,-186.61 120.69,-186.61 154.35,-186.61 181.69,-188.08 181.69,-189.88 181.69,-189.88 181.69,-219.34 181.69,-219.34"/>
<path fill="none" stroke="black" d="M181.69,-219.34C181.69,-217.53 154.35,-216.06 120.69,-216.06 87.03,-216.06 59.69,-217.53 59.69,-219.34"/>
<text text-anchor="middle" x="120.69" y="-200.91" font-family="Times,serif" font-size="14.00">Auth Database</text>
</g>
<!-- Auth Service&#45;&gt;Auth DB -->
<g id="edge10" class="edge">
<title>Auth Service&#45;&gt;Auth DB</title>
<path fill="none" stroke="black" d="M126.67,-282.42C125.51,-267.4 124.03,-248.5 122.84,-233.21"/>
<polygon fill="black" stroke="black" points="126.3,-232.51 122.03,-222.81 119.32,-233.06 126.3,-232.51"/>
</g>
<!-- User DB -->
<g id="node7" class="node">
<title>User DB</title>
<path fill="none" stroke="black" d="M454.69,-32.73C454.69,-34.53 427.35,-36 393.69,-36 360.03,-36 332.69,-34.53 332.69,-32.73 332.69,-32.73 332.69,-3.27 332.69,-3.27 332.69,-1.47 360.03,0 393.69,0 427.35,0 454.69,-1.47 454.69,-3.27 454.69,-3.27 454.69,-32.73 454.69,-32.73"/>
<path fill="none" stroke="black" d="M454.69,-32.73C454.69,-30.92 427.35,-29.45 393.69,-29.45 360.03,-29.45 332.69,-30.92 332.69,-32.73"/>
<text text-anchor="middle" x="393.69" y="-14.3" font-family="Times,serif" font-size="14.00">User Database</text>
</g>
<!-- User Service&#45;&gt;User DB -->
<g id="edge11" class="edge">
<title>User Service&#45;&gt;User DB</title>
<path fill="none" stroke="black" d="M393.69,-72.72C393.69,-64.27 393.69,-54.89 393.69,-46.36"/>
<polygon fill="black" stroke="black" points="397.19,-46.15 393.69,-36.15 390.19,-46.15 397.19,-46.15"/>
</g>
<!-- Transaction Service&#45;&gt;User Service -->
<g id="edge7" class="edge">
<title>Transaction Service&#45;&gt;User Service</title>
<path fill="none" stroke="black" d="M497,-282.29C504.2,-254.78 511.12,-210.89 494.69,-177.74 484.98,-158.14 467.62,-142.19 449.99,-129.99"/>
<polygon fill="black" stroke="black" points="451.63,-126.88 441.35,-124.31 447.79,-132.73 451.63,-126.88"/>
<text text-anchor="middle" x="524.69" y="-200.91" font-family="Times,serif" font-size="14.00">gRPC</text>
</g>
<!-- Transaction Service&#45;&gt;Role Service -->
<g id="edge9" class="edge">
<title>Transaction Service&#45;&gt;Role Service</title>
<path fill="none" stroke="black" d="M537.06,-283.87C566.84,-268.8 605.12,-249.43 636.14,-233.73"/>
<polygon fill="black" stroke="black" points="637.75,-236.83 645.1,-229.19 634.59,-230.59 637.75,-236.83"/>
<text text-anchor="middle" x="621.69" y="-253.28" font-family="Times,serif" font-size="14.00">gRPC</text>
</g>
<!-- Transaction DB -->
<g id="node8" class="node">
<title>Transaction DB</title>
<path fill="none" stroke="black" d="M485.69,-219.34C485.69,-221.14 447.15,-222.61 399.69,-222.61 352.24,-222.61 313.69,-221.14 313.69,-219.34 313.69,-219.34 313.69,-189.88 313.69,-189.88 313.69,-188.08 352.24,-186.61 399.69,-186.61 447.15,-186.61 485.69,-188.08 485.69,-189.88 485.69,-189.88 485.69,-219.34 485.69,-219.34"/>
<path fill="none" stroke="black" d="M485.69,-219.34C485.69,-217.53 447.15,-216.06 399.69,-216.06 352.24,-216.06 313.69,-217.53 313.69,-219.34"/>
<text text-anchor="middle" x="399.69" y="-200.91" font-family="Times,serif" font-size="14.00">Transaction Database</text>
</g>
<!-- Transaction Service&#45;&gt;Transaction DB -->
<g id="edge12" class="edge">
<title>Transaction Service&#45;&gt;Transaction DB</title>
<path fill="none" stroke="black" d="M466.46,-282.69C452.7,-266.8 435.1,-246.48 421.43,-230.7"/>
<polygon fill="black" stroke="black" points="423.87,-228.17 414.67,-222.9 418.58,-232.75 423.87,-228.17"/>
</g>
<!-- Role Service&#45;&gt;User Service -->
<g id="edge8" class="edge">
<title>Role Service&#45;&gt;User Service</title>
<path fill="none" stroke="black" d="M634.94,-181.24C605.49,-169.87 568.83,-156.1 535.69,-144.74 515.25,-137.73 492.99,-130.62 472.29,-124.21"/>
<polygon fill="black" stroke="black" points="473.17,-120.82 462.58,-121.23 471.11,-127.51 473.17,-120.82"/>
<text text-anchor="middle" x="593.69" y="-148.54" font-family="Times,serif" font-size="14.00">gRPC</text>
</g>
<!-- Role DB -->
<g id="node9" class="node">
<title>Role DB</title>
<path fill="none" stroke="black" d="M751.19,-114.6C751.19,-116.4 724.52,-117.87 691.69,-117.87 658.86,-117.87 632.19,-116.4 632.19,-114.6 632.19,-114.6 632.19,-85.14 632.19,-85.14 632.19,-83.34 658.86,-81.87 691.69,-81.87 724.52,-81.87 751.19,-83.34 751.19,-85.14 751.19,-85.14 751.19,-114.6 751.19,-114.6"/>
<path fill="none" stroke="black" d="M751.19,-114.6C751.19,-112.79 724.52,-111.32 691.69,-111.32 658.86,-111.32 632.19,-112.79 632.19,-114.6"/>
<text text-anchor="middle" x="691.69" y="-96.17" font-family="Times,serif" font-size="14.00">Role Database</text>
</g>
<!-- Role Service&#45;&gt;Role DB -->
<g id="edge13" class="edge">
<title>Role Service&#45;&gt;Role DB</title>
<path fill="none" stroke="black" d="M691.69,-177.68C691.69,-162.66 691.69,-143.76 691.69,-128.47"/>
<polygon fill="black" stroke="black" points="695.19,-128.07 691.69,-118.07 688.19,-128.07 695.19,-128.07"/>
</g>
<!-- User -->
<g id="node10" class="node">
<title>User</title>
<polygon fill="none" stroke="black" points="391.69,-499.96 293.69,-499.96 293.69,-463.96 391.69,-463.96 391.69,-499.96"/>
<text text-anchor="middle" x="342.69" y="-478.26" font-family="Times,serif" font-size="14.00">User/Client</text>
</g>
<!-- User&#45;&gt;API Gateway -->
<g id="edge1" class="edge">
<title>User&#45;&gt;API Gateway</title>
<path fill="none" stroke="black" d="M342.69,-463.63C342.69,-455.9 342.69,-446.48 342.69,-437.32"/>
<polygon fill="black" stroke="black" points="346.19,-437.19 342.69,-427.19 339.19,-437.19 346.19,-437.19"/>
</g>
</g>
</svg>
